# xmcd
#
# Track frame offsets:
#	150
#	12723
#	31321
#	46960
#
# Disc length: 735 seconds
#
# Revision: 0
# Processed by: cddbd v1.5.2PL0 Copyright (c) Steve Scherf et al.
# Submitted via: dBpowerAMP V4.0
#
DISCID=2c02dd04
DTITLE=Morning Vision Blue - Mirror
DYEAR=2007
DGENRE=
TTITLE0=Deliver me Up
TTITLE1=My Demon
TTITLE2=Thinking Two Times Now
TTITLE3=Light
EXTD=
EXTT0=
EXTT1=
EXTT2=
EXTT3=
PLAYORDER=
